<?xml version="1.0" encoding="UTF-8" standalone="no"?>
<!-- Generator: Adobe Illustrator 16.0.3, SVG Export Plug-In . SVG Version: 6.00 Build 0)  -->

<svg
   xmlns:dc="http://purl.org/dc/elements/1.1/"
   xmlns:cc="http://creativecommons.org/ns#"
   xmlns:rdf="http://www.w3.org/1999/02/22-rdf-syntax-ns#"
   xmlns:svg="http://www.w3.org/2000/svg"
   xmlns="http://www.w3.org/2000/svg"
   xmlns:sodipodi="http://sodipodi.sourceforge.net/DTD/sodipodi-0.dtd"
   xmlns:inkscape="http://www.inkscape.org/namespaces/inkscape"
   id="Ebene_1"
   enable-background="new 0 0 566.929 458.929"
   xml:space="preserve"
   height="458.93px"
   viewBox="0 0 566.929 458.929"
   width="566.93px"
   version="1.1"
   y="0px"
   x="0px"
   inkscape:version="0.91 r13725"
   sodipodi:docname="fba.svg"><defs
     id="defs19" /><sodipodi:namedview
     pagecolor="#ffffff"
     bordercolor="#666666"
     borderopacity="1"
     objecttolerance="10"
     gridtolerance="10"
     guidetolerance="10"
     inkscape:pageopacity="0"
     inkscape:pageshadow="2"
     inkscape:window-width="640"
     inkscape:window-height="480"
     id="namedview17"
     showgrid="false"
     inkscape:zoom="0.7184194"
     inkscape:cx="576.6125"
     inkscape:cy="72.071239"
     inkscape:current-layer="g3" /><metadata
     id="metadata33"><rdf:RDF><cc:Work
         rdf:about=""><dc:format>image/svg+xml</dc:format><dc:type
           rdf:resource="http://purl.org/dc/dcmitype/StillImage" /><dc:title /></cc:Work></rdf:RDF></metadata><g
     id="g3"><g
       id="g5"><path
         id="path7"
         fill="#CF8A61"
         clip-rule="evenodd"
         d="m564.9 182.7c0.103-1.35 0-2.745 0-3.875 0.015-25.821 0.018-51.642-0.007-77.463-0.001-1.341-0.074-2.729-0.417-4.015-7.45-27.979-20.942-52.36-43.296-71.218-18.353-15.481-39.435-24.117-63.727-24.113-64.01 0.008-128.03 0.001-192.05 0.001-86.168 0-172.34-0.001-258.5 0.01-1.591 0-3.182-0.08-4.898 0v58.69c1.204 0.469 2.251 0.942 3.338 1.29 7.92 2.53 15.849 5.035 23.776 7.545 79.821 25.273 159.64 50.542 239.46 75.823 37.698 11.939 75.383 23.919 113.09 35.826 2.366 0.747 4.884 1.441 7.333 1.444 57.348 0.081 114.7 0.064 172.04 0.052 1.13 0.01 2.52 0.11 3.87 0.01zm-222.24-3.73c-51.406-16.294-102.4-32.456-154.03-48.82v226.68c-22.218 11.208-44.116 22.253-65.864 33.224v66.882h269.52v-129.98h-49.629v-147.98zm17.44 17.72v114.01h204.54v-114.01h-204.54z"
         fill-rule="evenodd" /></g><g
       id="g11"><path
         id="path13"
         fill="#CF8A61"
         clip-rule="evenodd"
         d="m564.9 182.7l-178.77-0.052-384.14-121.75v-58.88c1.717-0.08 177.23-0.01 263.4-0.01 64.021 0 128.04 0.007 192.06-0.003 24.292-0.004 45.374 8.632 63.727 24.113 22.354 18.858 35.846 43.239 43.296 71.218 0.343 1.286 0.416 2.673 0.417 4.015 0.02 25.83 0 81.35 0 81.35z"
         fill-rule="evenodd" /></g><g
       id="g17"><path
         id="path19"
         fill="#CF8A61"
         clip-rule="evenodd"
         d="m342.66 178.97v147.98h49.629v129.98h-269.52v-66.882c21.748-10.971 43.646-22.016 65.864-33.224v-226.68c51.63 16.37 102.62 32.53 154.03 48.82z"
         fill-rule="evenodd" /></g></g></svg>