<?xml version="1.0" encoding="UTF-8" standalone="no"?>
<!-- Generator: Adobe Illustrator 16.0.3, SVG Export Plug-In . SVG Version: 6.00 Build 0)  -->

<svg
   xmlns:osb="http://www.openswatchbook.org/uri/2009/osb"
   xmlns:dc="http://purl.org/dc/elements/1.1/"
   xmlns:cc="http://creativecommons.org/ns#"
   xmlns:rdf="http://www.w3.org/1999/02/22-rdf-syntax-ns#"
   xmlns:svg="http://www.w3.org/2000/svg"
   xmlns="http://www.w3.org/2000/svg"
   xmlns:xlink="http://www.w3.org/1999/xlink"
   xmlns:sodipodi="http://sodipodi.sourceforge.net/DTD/sodipodi-0.dtd"
   xmlns:inkscape="http://www.inkscape.org/namespaces/inkscape"
   version="1.1"
   id="Ebene_1"
   x="0px"
   y="0px"
   width="505"
   height="155"
   viewBox="0 0 504.99999 155"
   enable-background="new 0 0 566.929 458.929"
   xml:space="preserve"
   inkscape:version="0.91 r13725"
   sodipodi:docname="arcade.svg"><metadata
     id="metadata3367"><rdf:RDF><cc:Work
         rdf:about=""><dc:format>image/svg+xml</dc:format><dc:type
           rdf:resource="http://purl.org/dc/dcmitype/StillImage" /><dc:title></dc:title></cc:Work></rdf:RDF></metadata><defs
     id="defs3365"><linearGradient
       id="linearGradient5671"
       osb:paint="solid"><stop
         style="stop-color:#000000;stop-opacity:1;"
         offset="0"
         id="stop5673" /></linearGradient><linearGradient
       inkscape:collect="always"
       id="linearGradient5651"><stop
         style="stop-color:#ff8800;stop-opacity:1;"
         offset="0"
         id="stop5653" /><stop
         style="stop-color:#ff8800;stop-opacity:0;"
         offset="1"
         id="stop5655" /></linearGradient><radialGradient
       inkscape:collect="always"
       xlink:href="#linearGradient5651"
       id="radialGradient5657"
       cx="286.58636"
       cy="312.82358"
       fx="286.58636"
       fy="312.82358"
       r="250.29474"
       gradientTransform="matrix(1,0,0,0.27059769,0,228.17424)"
       gradientUnits="userSpaceOnUse" /><linearGradient
       inkscape:collect="always"
       xlink:href="#linearGradient5671"
       id="linearGradient5675"
       x1="36.291626"
       y1="312.82358"
       x2="536.8811"
       y2="312.82358"
       gradientUnits="userSpaceOnUse" /></defs><sodipodi:namedview
     pagecolor="#ffffff"
     bordercolor="#666666"
     borderopacity="1"
     objecttolerance="10"
     gridtolerance="10"
     guidetolerance="10"
     inkscape:pageopacity="0"
     inkscape:pageshadow="2"
     inkscape:window-width="1366"
     inkscape:window-height="706"
     id="namedview3363"
     showgrid="false"
     showguides="false"
     borderlayer="false"
     inkscape:zoom="1.3475248"
     inkscape:cx="240.47645"
     inkscape:cy="4.1807438"
     inkscape:window-x="-8"
     inkscape:window-y="-8"
     inkscape:window-maximized="1"
     inkscape:current-layer="text3373-5-8"><inkscape:grid
       type="xygrid"
       id="grid5695" /></sodipodi:namedview><g
     style="font-style:normal;font-variant:normal;font-weight:bold;font-stretch:normal;font-size:170.94393921px;line-height:7.00000003%;font-family:Aharoni;-inkscape-font-specification:'Aharoni, Bold';text-align:start;letter-spacing:0px;word-spacing:-8.29310989px;writing-mode:lr-tb;text-anchor:start;fill:#ff8800;fill-opacity:1;stroke:#000000;stroke-width:7;stroke-linecap:round;stroke-linejoin:round;stroke-miterlimit:4;stroke-dasharray:none;stroke-opacity:1;color:#000000;clip-rule:nonzero;display:inline;overflow:visible;visibility:visible;opacity:1;isolation:auto;mix-blend-mode:normal;color-interpolation:sRGB;color-interpolation-filters:linearRGB;solid-color:#000000;solid-opacity:1;fill-rule:nonzero;stroke-dashoffset:0;filter-blend-mode:normal;filter-gaussianBlur-deviation:0;color-rendering:auto;image-rendering:auto;shape-rendering:auto;text-rendering:auto;enable-background:accumulate"
     id="text3373-5-8"><path
       d="m 95.598526,131.08104 -27.37774,0 0,-8.59728 q -3.92303,4.92466 -7.929529,7.17831 -7.011372,3.92303 -15.942525,3.92303 -14.440089,0 -25.708366,-9.93278 Q 5.2019017,111.79977 5.2019017,92.268084 q 0,-19.865555 13.7723393,-31.718113 10.934402,-9.431966 25.124084,-9.431966 8.263404,0 15.525182,3.505687 4.173436,2.003249 8.597279,6.594029 l 0,-7.595654 27.37774,0 0,77.458973 z M 69.055473,92.351553 q 0,-7.345247 -5.175061,-12.436839 -5.175061,-5.175061 -12.520308,-5.175061 -8.179935,0 -13.438464,6.176686 -4.256905,5.008123 -4.256905,11.435214 0,6.427092 4.256905,11.435217 5.175061,6.17668 13.438464,6.17668 7.428716,0 12.520308,-5.09159 5.175061,-5.091591 5.175061,-12.520307 z"
       style="line-height:7.00000003%;letter-spacing:-10.96000004px;word-spacing:-12.86999989px;fill:#ff8800;fill-opacity:1;stroke:#000000;stroke-width:7;stroke-linecap:round;stroke-linejoin:round;stroke-miterlimit:4;stroke-dasharray:none;stroke-opacity:0;color:#000000;clip-rule:nonzero;display:inline;overflow:visible;visibility:visible;isolation:auto;mix-blend-mode:normal;color-interpolation:sRGB;color-interpolation-filters:linearRGB;solid-color:#000000;solid-opacity:1;fill-rule:nonzero;stroke-dashoffset:0;filter-blend-mode:normal;filter-gaussianBlur-deviation:0;color-rendering:auto;image-rendering:auto;shape-rendering:auto;text-rendering:auto;enable-background:accumulate"
       id="path3351" /><path
       d="m 161.59669,78.913089 q -5.75935,-2.754468 -11.68563,-2.754468 -13.52193,0 -17.52843,11.017872 -1.50243,4.006498 -1.50243,10.767464 l 0,33.137083 -27.37774,0 0,-77.458973 27.37774,0 0,12.687245 q 4.34037,-6.760966 9.34849,-9.76584 6.76097,-4.006498 16.026,-4.006498 2.17018,0 5.342,0.250406 l 0,26.125709 z"
       style="line-height:7.00000003%;letter-spacing:-10.96000004px;word-spacing:-12.86999989px;fill:#ff8800;fill-opacity:1;stroke:#000000;stroke-width:7;stroke-linecap:round;stroke-linejoin:round;stroke-miterlimit:4;stroke-dasharray:none;stroke-opacity:0;color:#000000;clip-rule:nonzero;display:inline;overflow:visible;visibility:visible;isolation:auto;mix-blend-mode:normal;color-interpolation:sRGB;color-interpolation-filters:linearRGB;solid-color:#000000;solid-opacity:1;fill-rule:nonzero;stroke-dashoffset:0;filter-blend-mode:normal;filter-gaussianBlur-deviation:0;color-rendering:auto;image-rendering:auto;shape-rendering:auto;text-rendering:auto;enable-background:accumulate"
       id="path3353" /><path
       d="m 221.41816,129.41167 q -8.51381,4.2569 -17.8623,4.2569 -21.20106,0 -33.6379,-14.35662 -10.01624,-11.60215 -10.01624,-26.876928 0,-15.358245 10.01624,-26.876928 12.43684,-14.35662 33.6379,-14.35662 9.51543,0 17.8623,4.340374 l 0,23.287773 q -7.26178,-5.091592 -14.18968,-5.091592 -8.17993,0 -13.52193,5.258529 -5.342,5.258529 -5.342,13.438464 0,8.179938 5.342,13.438468 5.342,5.25853 13.52193,5.25853 6.84444,0 14.18968,-5.00813 l 0,23.28778 z"
       style="line-height:7.00000003%;letter-spacing:-10.96000004px;word-spacing:-12.86999989px;fill:#ff8800;fill-opacity:1;stroke:#000000;stroke-width:7;stroke-linecap:round;stroke-linejoin:round;stroke-miterlimit:4;stroke-dasharray:none;stroke-opacity:0;color:#000000;clip-rule:nonzero;display:inline;overflow:visible;visibility:visible;isolation:auto;mix-blend-mode:normal;color-interpolation:sRGB;color-interpolation-filters:linearRGB;solid-color:#000000;solid-opacity:1;fill-rule:nonzero;stroke-dashoffset:0;filter-blend-mode:normal;filter-gaussianBlur-deviation:0;color-rendering:auto;image-rendering:auto;shape-rendering:auto;text-rendering:auto;enable-background:accumulate"
       id="path3355" /><path
       d="m 313.45856,131.08104 -27.37774,0 0,-8.59728 q -3.92303,4.92466 -7.92953,7.17831 -7.01137,3.92303 -15.94253,3.92303 -14.44009,0 -25.70836,-9.93278 -13.43847,-11.85255 -13.43847,-31.384236 0,-19.865555 13.77234,-31.718113 10.9344,-9.431966 25.12409,-9.431966 8.2634,0 15.52518,3.505687 4.17343,2.003249 8.59728,6.594029 l 0,-7.595654 27.37774,0 0,77.458973 z M 286.9155,92.351553 q 0,-7.345247 -5.17506,-12.436839 -5.17506,-5.175061 -12.5203,-5.175061 -8.17994,0 -13.43847,6.176686 -4.2569,5.008123 -4.2569,11.435214 0,6.427092 4.2569,11.435217 5.17506,6.17668 13.43847,6.17668 7.42871,0 12.5203,-5.09159 5.17506,-5.091591 5.17506,-12.520307 z"
       style="line-height:7.00000003%;letter-spacing:-10.96000004px;word-spacing:-12.86999989px;fill:#ff8800;fill-opacity:1;stroke:#000000;stroke-width:7;stroke-linecap:round;stroke-linejoin:round;stroke-miterlimit:4;stroke-dasharray:none;stroke-opacity:0;color:#000000;clip-rule:nonzero;display:inline;overflow:visible;visibility:visible;isolation:auto;mix-blend-mode:normal;color-interpolation:sRGB;color-interpolation-filters:linearRGB;solid-color:#000000;solid-opacity:1;fill-rule:nonzero;stroke-dashoffset:0;filter-blend-mode:normal;filter-gaussianBlur-deviation:0;color-rendering:auto;image-rendering:auto;shape-rendering:auto;text-rendering:auto;enable-background:accumulate"
       id="path3357" /><path
       d="m 408.67076,131.08104 -27.37774,0 0,-8.59728 q -3.92303,4.92466 -7.92953,7.17831 -7.01137,3.92303 -15.94252,3.92303 -14.44009,0 -25.70837,-9.93278 -13.43846,-11.85255 -13.43846,-31.384236 0,-19.865555 13.77234,-31.718113 10.9344,-9.431966 25.12408,-9.431966 8.2634,0 15.52518,3.505687 4.17344,2.003249 8.59728,6.594029 l 0,-55.5066995 27.37774,0 0,125.3700185 z M 382.12771,92.351553 q 0,-7.345247 -5.17506,-12.436839 -5.17506,-5.175061 -12.52031,-5.175061 -8.17994,0 -13.43846,6.176686 -4.25691,5.008123 -4.25691,11.435214 0,6.427092 4.25691,11.435217 5.17506,6.17668 13.43846,6.17668 7.42872,0 12.52031,-5.09159 5.17506,-5.091591 5.17506,-12.520307 z"
       style="line-height:7.00000003%;letter-spacing:-10.96000004px;word-spacing:-12.86999989px;fill:#ff8800;fill-opacity:1;stroke:#000000;stroke-width:7;stroke-linecap:round;stroke-linejoin:round;stroke-miterlimit:4;stroke-dasharray:none;stroke-opacity:0;color:#000000;clip-rule:nonzero;display:inline;overflow:visible;visibility:visible;isolation:auto;mix-blend-mode:normal;color-interpolation:sRGB;color-interpolation-filters:linearRGB;solid-color:#000000;solid-opacity:1;fill-rule:nonzero;stroke-dashoffset:0;filter-blend-mode:normal;filter-gaussianBlur-deviation:0;color-rendering:auto;image-rendering:auto;shape-rendering:auto;text-rendering:auto;enable-background:accumulate"
       id="path3359" /><path
       d="m 498.79139,97.359676 -57.59342,0 q 0,17.444964 16.86068,17.444964 8.59728,0 13.18806,-7.34525 l 26.45958,0 q -3.17181,10.51706 -9.34849,16.2764 -11.18481,10.43359 -29.96527,10.43359 -23.87206,0 -35.89155,-14.52356 -9.01462,-10.85093 -9.01462,-26.45958 0,-18.530056 11.26827,-30.132208 11.26828,-11.602152 31.80159,-11.602152 25.29102,0 36.14195,18.363119 6.09322,10.350121 6.09322,24.038991 l 0,3.505686 z M 473.24996,81.667557 q -2.92141,-12.854183 -15.60865,-12.854183 -7.01137,0 -11.35175,4.089967 -3.42221,3.25528 -4.34037,8.764216 l 31.30077,0 z"
       style="line-height:7.00000003%;letter-spacing:-10.96000004px;word-spacing:-12.86999989px;fill:#ff8800;fill-opacity:1;stroke:#000000;stroke-width:7;stroke-linecap:round;stroke-linejoin:round;stroke-miterlimit:4;stroke-dasharray:none;stroke-opacity:0;color:#000000;clip-rule:nonzero;display:inline;overflow:visible;visibility:visible;isolation:auto;mix-blend-mode:normal;color-interpolation:sRGB;color-interpolation-filters:linearRGB;solid-color:#000000;solid-opacity:1;fill-rule:nonzero;stroke-dashoffset:0;filter-blend-mode:normal;filter-gaussianBlur-deviation:0;color-rendering:auto;image-rendering:auto;shape-rendering:auto;text-rendering:auto;enable-background:accumulate"
       id="path3361" /></g></svg>